Motion_pl05
version=1
nRows=8
nColumns=43
inDegrees=yes
endheader
time	pelvis_tilt	pelvis_list	pelvis_rotation	pelvis_tx	pelvis_ty	pelvis_tz	hip_flexion_r	hip_adduction_r	hip_rotation_r	knee_angle_r	ankle_angle_r	subtalar_angle_r	mtp_angle_r	hip_flexion_l	hip_adduction_l	hip_rotation_l	knee_angle_l	ankle_angle_l	subtalar_angle_l	mtp_angle_l	lumbar_extension	lumbar_bending	lumbar_rotation	neck_flexion	neck_lateral_bending	neck_rotation	arm_flex_r	arm_add_r	arm_rot_r	elbow_flex_r	pro_sup_r	wrist_flex_r	wrist_dev_r	hand_finger_flex_r	arm_flex_l	arm_add_l	arm_rot_l	elbow_flex_l	pro_sup_l	wrist_flex_l	wrist_dev_l	hand_finger_flex_l
      0.67000000	     -3.60832245	    -25.50122106	     89.26932517	      0.01569095	      1.90064743	      1.62229198	     53.81177070	     -5.95466357	      4.84875808	   -106.03385749	     13.34058096	     -5.53764207	     -2.16943796	     52.64054742	     -1.59105254	      2.39826217	   -105.14057612	     20.00245290	     -5.42550870	      7.09377855	    -39.22386263	     -2.83966092	     -0.52240411	     26.89062698	      1.63102797	     -0.93187442	    144.59995359	     -2.08323914	     31.94652509	     48.36957136	     68.00625253	    -32.76684109	     -2.49389654	     31.74859656	    141.17260507	     -1.16876009	     20.68274653	     56.00066768	    105.00908160	    -31.78190158	     11.61430802	     78.48083465
      0.67250000	     -3.64877055	    -25.19877363	     89.21451658	      0.01553681	      1.90279448	      1.61679949	     53.13285894	     -6.07079777	      4.88272490	   -105.67203319	     12.32924524	     -5.33472509	     -2.29374857	     51.93712317	     -1.59859237	      2.34171375	   -104.83787869	     19.04650044	     -5.25600366	      7.09738500	    -39.27907607	     -2.88955685	     -0.45737043	     26.30529231	      1.62680905	     -0.94909746	    144.31299696	     -2.13192031	     31.97664433	     48.44970612	     68.08490898	    -32.76018363	     -2.52421969	     31.75344408	    140.85266033	     -1.21172342	     20.68781072	     56.16625292	    105.16125441	    -31.74888360	     11.67552968	     78.54228134
      0.67500000	     -3.70367611	    -24.81834206	     89.14162060	      0.01544805	      1.90509084	      1.61120677	     52.38104321	     -6.19942015	      4.90842211	   -105.29730014	     11.27781831	     -5.20525410	     -2.41594877	     51.15034941	     -1.60876945	      2.26055117	   -104.52233812	     18.05573416	     -5.15752740	      7.10881977	    -39.43727985	     -2.96631084	     -0.39560114	     25.73272333	      1.63652590	     -0.97020263	    144.05204701	     -2.18369651	     32.00156317	     48.50925201	     68.18924166	    -32.77023108	     -2.56323601	     31.74686206	    140.54752220	     -1.23855840	     20.68171342	     56.33960213	    105.33823530	    -31.72138507	     11.73663954	     78.60609846
      0.67750000	     -3.85304218	    -23.87231369	     88.97538130	      0.01545702	      1.90859852	      1.60496318	     50.95227097	     -6.33927159	      4.99692630	   -104.78992233	     10.13644397	     -5.60223118	     -2.46759155	     49.61255307	     -1.56127695	      2.01323002	   -104.00244006	     17.05940183	     -5.62300149	      7.40912067	    -40.30771003	     -3.15655830	     -0.36508551	     25.39639035	      1.59184989	     -0.98202569	    143.92483067	     -2.17927141	     31.89971182	     48.51146750	     68.53031454	    -32.84728716	     -2.69203959	     31.66890273	    140.40319964	     -1.14038630	     20.46376625	     56.40520296	    105.88587112	    -31.69232421	     11.90422755	     78.71132428
      0.68000000	     -3.86879669	    -23.65575868	     88.93538301	      0.01533293	      1.91037850	      1.59957183	     50.44128394	     -6.46994600	      4.99881532	   -104.49380256	      9.11813990	     -5.26716175	     -2.56636204	     49.11797075	     -1.60973425	      1.96146440	   -103.81455262	     15.97938838	     -5.33836086	      7.40841090	    -40.25888537	     -3.20058191	     -0.29497957	     24.82039036	      1.68737562	     -1.01428666	    143.65607428	     -2.28670666	     32.05377329	     48.53829560	     68.61572210	    -32.78359567	     -2.64682693	     31.68674229	    140.05956414	     -1.22849690	     20.61187138	     56.58940624	    106.00501318	    -31.61375964	     11.94287259	     78.78315713
      0.68250000	     -3.89402249	    -23.33579667	     88.88470026	      0.01527519	      1.91242764	      1.59407202	     49.82871894	     -6.57525655	      5.02111661	   -104.15852228	      7.94455271	     -5.04936818	     -2.68580728	     48.50155612	     -1.63530632	      1.91618076	   -103.58031304	     14.82733289	     -5.17477932	      7.40602658	    -40.33972121	     -3.25796329	     -0.22710502	     24.19985732	      1.69928258	     -1.02516511	    143.36226587	     -2.38952640	     32.14858959	     48.61014403	     68.72159053	    -32.77331307	     -2.63949190	     31.68018345	    139.72386701	     -1.27497715	     20.68018335	     56.72925804	    106.12072662	    -31.56655539	     11.99706788	     78.84559744
      0.68500000	     -3.97705392	    -22.46528397	     88.77355025	      0.01533840	      1.91558550	      1.58793148	     48.55106459	     -6.66886366	      5.05684520	   -103.70506149	      6.53589961	     -5.55096970	     -2.70446045	     47.18924979	     -1.63097317	      1.70444555	   -103.17221816	     13.54907074	     -5.73278524	      7.76071042	    -41.09689307	     -3.39200939	     -0.14380924	     23.82370886	      1.68603246	     -1.03757058	    143.18293576	     -2.43287531	     32.14030581	     48.63399098	     69.10463796	    -32.88111021	     -2.69409898	     31.55102510	    139.51010531	     -1.19203110	     20.53326761	     56.78286815	    106.51296873	    -31.54085327	     12.15647230	     78.93582433
      0.68750000	     -3.97075133	    -22.24266666	     88.74120411	      0.01530187	      1.91731555	      1.58262506	     48.09242486	     -6.74260414	      5.07953063	   -103.41900328	      5.39812253	     -5.20377296	     -2.80511548	     46.77675523	     -1.68252692	      1.70677789	   -103.02286333	     12.31387524	     -5.41251466	      7.76360379	    -41.06833725	     -3.42861966	     -0.08887925	     23.19663119	      1.76904488	     -1.06754617	    142.90674227	     -2.55266369	     32.32896173	     48.65583844	     69.19380754	    -32.82406530	     -2.63349384	     31.56035636	    139.16667265	     -1.28847948	     20.70317517	     56.93739646	    106.58831410	    -31.46857403	     12.19948353	     78.99830823
